HIERARCHY
ROOT hip
{
	OFFSET 0.000000 0.000000 0.000000 
	CHANNELS 6 Xposition Yposition Zposition Xrotation Zrotation Yrotation
	JOINT abdomen
	{
		OFFSET 0.000000 3.402643 0.000000 
		CHANNELS 3 Xrotation Zrotation Yrotation
		JOINT chest
		{
			OFFSET 0.000000 8.438565 -0.680529 
			CHANNELS 3 Xrotation Zrotation Yrotation
			JOINT neck
			{
				OFFSET 0.000000 10.207942 -0.272212 
				CHANNELS 3 Xrotation Zrotation Yrotation
				JOINT head
				{
					OFFSET 0.000000 3.130431 0.000000 
					CHANNELS 3 Xrotation Zrotation Yrotation
					End Site
					{
						OFFSET 0.000000 3.130435 0.000000 
					}
				}
			}
			JOINT lCollar
			{
				OFFSET 3.470700 6.669187 -0.816635 
				CHANNELS 3 Yrotation Zrotation Xrotation
				JOINT lShldr
				{
					OFFSET 3.198488 0.000000 0.000000 
					CHANNELS 3 Zrotation Yrotation Xrotation
					JOINT lForeArm
					{
						OFFSET 10.139888 0.000000 0.000000 
						CHANNELS 3 Yrotation Zrotation Xrotation
						JOINT lHand
						{
							OFFSET 8.370511 0.000000 0.000000 
							CHANNELS 3 Zrotation Yrotation Xrotation
							End Site
							{
								OFFSET 4.083176 0.000000 0.000000 
							}
						}
					}
				}
			}
			JOINT rCollar
			{
				OFFSET -3.470700 6.669187 -0.816635 
				CHANNELS 3 Yrotation Zrotation Xrotation
				JOINT rShldr
				{
					OFFSET -3.198488 0.000000 0.000000 
					CHANNELS 3 Zrotation Yrotation Xrotation
					JOINT rForeArm
					{
						OFFSET -10.139888 0.000000 0.000000 
						CHANNELS 3 Yrotation Zrotation Xrotation
						JOINT rHand
						{
							OFFSET -8.370511 0.000000 0.000000 
							CHANNELS 3 Zrotation Yrotation Xrotation
							End Site
							{
								OFFSET -4.083176 0.000000 0.000000 
							}
						}
					}
				}
			}
		}
	}
	JOINT lThigh
	{
		OFFSET 5.308129 -1.633274 1.361059 
		CHANNELS 3 Xrotation Zrotation Yrotation
		JOINT lShin
		{
			OFFSET -2.041588 -20.007561 0.000000 
			CHANNELS 3 Xrotation Zrotation Yrotation
			JOINT lFoot
			{
				OFFSET 0.000000 -19.190928 -1.224953 
				CHANNELS 3 Xrotation Yrotation Zrotation
				End Site
				{
					OFFSET 0.000000 -2.449906 4.627600 
				}
			}
		}
	}
	JOINT rThigh
	{
		OFFSET -5.308129 -1.633274 1.361059 
		CHANNELS 3 Xrotation Zrotation Yrotation
		JOINT rShin
		{
			OFFSET 2.041588 -20.007561 0.000000 
			CHANNELS 3 Xrotation Zrotation Yrotation
			JOINT rFoot
			{
				OFFSET 0.000000 -19.190928 -1.224953 
				CHANNELS 3 Xrotation Yrotation Zrotation
				End Site
				{
					OFFSET 0.000000 -2.449906 4.627600 
				}
			}
		}
	}
}
MOTION
Frames: 9
Frame Time: 0.033333
-60.905895 31.009951 30.534081 2.748018 17.744528 92.363335 0.000000 0.000000 0.000000 51.934696 12.233646 -6.459087 31.411453 -12.393255 -0.897878 17.503820 15.262266 -3.165190 -3.519355 9.157742 6.311733 -22.531054 -84.036766 -55.670280 -64.362206 8.430151 17.805811 21.782429 0.060353 -10.069060 3.090466 -14.082293 8.028685 13.028687 62.288933 -79.147720 89.455254 21.450672 30.460218 -25.598112 -22.362026 -7.106079 -24.639147 52.636875 24.104492 97.152306 3.131517 -31.281502 -22.722214 -3.625107 14.634833 -47.420597 -42.176464 -1.863461 86.960114 -12.156235 26.943552 -11.627058 1.676867 -11.305142 
-61.326431 30.135956 30.357597 2.395028 17.417332 92.389397 0.000000 0.000000 0.000000 52.838333 12.808714 -5.434326 28.037550 -15.176875 1.710168 17.552382 18.034592 -1.689470 -3.519355 9.157742 6.311733 -89.351746 -109.822029 8.793797 -53.174316 10.125904 12.689902 20.677532 -4.936738 -10.496170 3.090466 -14.082293 8.028685 -31.367535 60.284931 -123.521004 78.867538 23.843842 30.903187 -33.039234 -17.363794 -7.461802 -27.969259 53.811447 22.375305 99.829689 3.097590 -31.411709 -24.198427 -3.976891 15.231327 -50.556442 -43.046646 -0.998251 88.625366 -11.888995 27.636650 -11.299416 1.647146 -11.257710 
-61.641453 29.472837 30.272148 2.221339 14.715978 91.786575 0.000000 0.000000 0.000000 49.816406 12.387882 -4.662167 32.411800 -13.619151 2.455467 12.345099 15.037698 -0.422241 -3.519355 9.157742 6.311733 -83.873917 -120.146347 4.361240 -47.741108 11.145600 9.025749 16.426945 -7.780061 -10.106544 3.090466 -14.082293 8.028685 -46.671791 55.209942 -138.927246 73.595978 25.354612 32.426872 -31.734226 -15.930341 -7.902124 -32.109066 55.088390 22.084787 101.786400 2.864572 -31.671795 -24.422375 -4.083353 15.450761 -55.990696 -42.964859 0.831887 89.927994 -11.579366 28.046726 -11.131360 1.630121 -11.294908 
-61.684269 29.003431 30.184614 2.468570 12.274101 92.107590 0.000000 0.000000 0.000000 45.014652 12.862188 -4.708517 34.282005 -18.206366 5.317807 11.572671 19.828941 1.421307 -3.519355 9.157742 6.311733 -85.834541 -114.789948 9.202209 -51.344837 8.806314 5.914815 16.995695 -8.395990 -10.236682 3.090466 -14.082293 8.028685 -43.357578 56.791382 -134.023193 75.785812 26.949337 32.135612 -31.488708 -16.926062 -7.683089 -36.063183 55.567566 21.220417 103.304642 2.750097 -32.075951 -23.745609 -4.015231 15.516526 -60.167572 -44.164383 1.859121 91.033081 -11.287485 29.077679 -10.638743 1.607299 -11.488632 
-61.245140 28.670616 30.107918 2.667766 13.160048 94.213135 0.000000 0.000000 0.000000 42.910740 15.768638 -5.565948 35.912491 -24.464182 9.125245 10.932577 25.079473 4.114764 -3.519355 9.157742 6.311733 -111.391922 -98.752975 40.016968 -58.418785 7.498690 3.807572 15.822816 -9.690459 -10.134277 3.090466 -14.082293 8.028685 -22.113041 60.538261 -104.337997 79.605377 24.230928 28.543955 -32.783699 -17.396215 -7.507010 -36.845177 55.209942 19.502594 104.325882 2.834830 -31.789927 -25.403214 -4.413413 16.128853 -58.629913 -47.243843 0.909253 92.265396 -11.191324 29.856642 -12.042963 1.856766 -12.181229 
-60.532436 28.518221 30.167202 2.900516 15.644977 96.215103 0.000000 0.000000 0.000000 44.645550 20.416174 -5.157672 39.254509 -25.824080 12.346043 5.967541 23.776440 7.612142 -3.519355 9.157742 6.311733 -61.322769 -74.444000 -4.774590 -61.128853 9.555640 3.176464 16.251036 -6.739218 -9.973927 3.090466 -14.082293 8.028685 8.052330 56.273540 -61.528625 82.785675 17.008722 31.554573 -34.166183 -18.991844 -7.045966 -35.458828 55.036327 17.558353 104.781273 3.005098 -31.684862 -26.385399 -4.611207 16.322466 -53.978001 -49.193790 -0.520786 93.548332 -11.371930 29.160065 -14.231449 2.187710 -12.665316 
-59.869282 28.553707 30.215700 3.600159 16.200121 97.197983 0.000000 0.000000 0.000000 47.687527 23.776604 -3.306238 34.448387 -26.927132 18.198315 7.665866 25.026354 12.513533 -3.519355 9.157742 6.311733 -80.477646 -52.540703 14.575535 -56.644730 13.393946 2.454545 17.486670 -2.297309 -9.813148 3.090466 -14.082293 8.028685 33.484383 39.925507 -33.276646 88.437531 12.828403 30.765017 -34.755054 -19.866310 -6.774327 -33.835999 54.307400 17.042936 104.475975 3.061517 -32.133533 -26.831419 -4.635029 16.197859 -51.746567 -49.490921 -0.035901 94.302551 -11.686342 27.646267 -16.824394 2.544833 -13.016819 
-59.500507 28.734829 30.111040 4.763081 13.616688 97.686897 0.000000 0.000000 0.000000 48.894508 23.754452 -2.337023 24.782053 -24.086391 22.810549 12.744121 24.094538 16.009245 -3.519355 9.157742 6.311733 -91.207634 -33.547718 18.159359 -47.616989 19.930960 4.333277 19.345243 -1.176350 -9.929900 3.090466 -14.082293 8.028685 55.256245 18.693733 -23.293491 89.968796 11.383718 30.263027 -37.128609 -23.417185 -5.618650 -33.894310 52.510170 18.424761 103.645645 2.915120 -32.311672 -26.721416 -4.571683 16.032511 -54.210938 -49.417847 2.497894 94.458931 -11.950190 26.001469 -17.648924 2.613936 -13.007188 
-59.286266 28.803619 30.033777 5.039684 10.740543 97.876846 0.000000 0.000000 0.000000 47.980553 20.887638 -3.095859 21.756302 -16.054693 21.054470 10.389611 17.941057 15.745974 -3.519355 9.157742 6.311733 -94.416557 -17.546862 11.641010 -45.141655 19.117615 -0.880446 19.757923 -0.238999 -9.874845 3.090466 -14.082293 8.028685 73.361122 3.141204 -20.921827 81.031548 7.424612 35.190887 -42.453594 -22.682369 -5.218944 -35.448860 52.037460 19.422943 103.378113 2.756775 -32.299614 -26.418058 -4.504369 16.015505 -56.920822 -48.991879 4.153670 94.677689 -11.972747 24.522573 -17.719248 2.603393 -12.903858 
